<svg xmlns="http://www.w3.org/2000/svg" width="900" height="2000" viewBox="0 0 900 2000" version="1.1"><path d="M 547.496 886.004 C 545.362 888.362, 546.015 890.367, 551.244 897.525 C 554.666 902.209, 558.231 903.970, 560.905 902.296 C 563.979 900.373, 563.265 896.754, 558.528 890.250 C 553.557 883.423, 550.794 882.360, 547.496 886.004 M 642.974 886.250 C 639.606 889.851, 635 897.200, 635 898.971 C 635 901.404, 637.056 903, 640.189 903 C 642.455 903, 643.822 901.839, 647.489 896.800 C 649.970 893.390, 652 889.655, 652 888.500 C 652 883.788, 646.547 882.429, 642.974 886.250 M 584.763 901.966 C 551.498 908.039, 526.373 935.368, 523.472 968.632 C 522.797 976.368, 522.869 976.794, 525.105 978.361 C 527.221 979.843, 534.364 980, 599.568 980 C 683.622 980, 675.768 981.176, 674.615 968.761 C 672.814 949.365, 664.891 933.408, 650.523 920.242 C 643.103 913.443, 629.942 906.121, 620.500 903.539 C 613.543 901.636, 591.808 900.679, 584.763 901.966 M 564.200 949.200 C 563.540 949.860, 563 951.570, 563 953 C 563 956.144, 564.670 958, 567.500 958 C 570.330 958, 572 956.144, 572 953 C 572 949.856, 570.330 948, 567.500 948 C 566.345 948, 564.860 948.540, 564.200 949.200 M 627.517 949.626 C 625.559 951.584, 625.886 955.914, 628.095 957.296 C 630.667 958.905, 634.886 957.303, 635.603 954.444 C 636.831 949.554, 631.040 946.103, 627.517 949.626 M 516.608 995.826 C 516.323 996.286, 518.920 1001.577, 522.379 1007.582 C 530.069 1020.934, 556.744 1067.703, 562.542 1078 C 574.599 1099.414, 597.204 1138.602, 597.902 1139.301 C 598.342 1139.742, 599.466 1138.937, 600.400 1137.512 C 604.637 1131.046, 680.034 998.417, 680.253 997.045 C 680.474 995.664, 671.821 995.473, 598.813 995.244 C 553.885 995.103, 516.892 995.365, 516.608 995.826 M 236.328 998.519 C 233.845 1000.008, 227.727 1006.379, 221.213 1014.260 C 215.195 1021.542, 204.305 1034.700, 197.015 1043.500 C 182.028 1061.589, 179.552 1065.864, 181.046 1071.073 C 181.587 1072.958, 186.137 1079.450, 191.157 1085.500 C 230.973 1133.483, 233.255 1136.093, 237.317 1138.264 C 241.471 1140.484, 241.817 1140.500, 286.832 1140.500 L 332.164 1140.500 335.082 1137.234 L 338 1133.968 338 1067.907 L 338 1001.846 335.077 998.923 L 332.154 996 286.327 996.009 L 240.500 996.019 236.328 998.519 M 349 1215.994 C 349 1374.246, 349.306 1436, 350.091 1436 C 351.192 1436, 375.232 1427.004, 408.607 1414.103 L 426.713 1407.104 456.607 1418.571 C 473.048 1424.878, 489.913 1431.379, 494.085 1433.019 C 498.257 1434.658, 502.420 1436, 503.337 1436 C 504.889 1436, 504.987 1420.809, 504.752 1216.250 L 504.500 996.500 426.750 996.244 L 349 995.988 349 1215.994" stroke="none" fill="#f8f3f9" fill-rule="evenodd"/><path d="M 429 793.598 C 394.758 796.494, 363.167 803.261, 333 814.161 C 322.835 817.835, 295.203 830.387, 285.461 835.757 C 201.562 882.007, 139.344 961.030, 114.629 1052.730 C 92.388 1135.250, 100.229 1220.405, 137.123 1297 C 154.481 1333.038, 174.976 1362.032, 203.828 1391.368 C 234.724 1422.783, 266.005 1444.914, 305.500 1463.300 C 367.795 1492.300, 431.617 1501.974, 501.468 1493.004 C 564.173 1484.952, 628.569 1456.517, 678.486 1414.838 C 702.376 1394.891, 728.649 1365.466, 746.648 1338.500 C 769.876 1303.699, 787.947 1260.875, 796.865 1219.500 C 815.120 1134.802, 802.018 1048.088, 759.447 971.852 C 735.635 929.211, 700.325 889.669, 659 859.365 C 640.805 846.022, 625.185 836.889, 602.500 826.326 C 554.176 803.825, 512.083 794.242, 458.500 793.544 C 444.750 793.364, 431.475 793.389, 429 793.598 M 547.496 886.004 C 545.362 888.362, 546.015 890.367, 551.244 897.525 C 554.666 902.209, 558.231 903.970, 560.905 902.296 C 563.979 900.373, 563.265 896.754, 558.528 890.250 C 553.557 883.423, 550.794 882.360, 547.496 886.004 M 642.974 886.250 C 639.606 889.851, 635 897.200, 635 898.971 C 635 901.404, 637.056 903, 640.189 903 C 642.455 903, 643.822 901.839, 647.489 896.800 C 649.970 893.390, 652 889.655, 652 888.500 C 652 883.788, 646.547 882.429, 642.974 886.250 M 584.763 901.966 C 551.498 908.039, 526.373 935.368, 523.472 968.632 C 522.797 976.368, 522.869 976.794, 525.105 978.361 C 527.221 979.843, 534.364 980, 599.568 980 C 683.622 980, 675.768 981.176, 674.615 968.761 C 672.814 949.365, 664.891 933.408, 650.523 920.242 C 643.103 913.443, 629.942 906.121, 620.500 903.539 C 613.543 901.636, 591.808 900.679, 584.763 901.966 M 564.200 949.200 C 563.540 949.860, 563 951.570, 563 953 C 563 956.144, 564.670 958, 567.500 958 C 570.330 958, 572 956.144, 572 953 C 572 949.856, 570.330 948, 567.500 948 C 566.345 948, 564.860 948.540, 564.200 949.200 M 627.517 949.626 C 625.559 951.584, 625.886 955.914, 628.095 957.296 C 630.667 958.905, 634.886 957.303, 635.603 954.444 C 636.831 949.554, 631.040 946.103, 627.517 949.626 M 516.608 995.826 C 516.323 996.286, 518.920 1001.577, 522.379 1007.582 C 530.069 1020.934, 556.744 1067.703, 562.542 1078 C 574.599 1099.414, 597.204 1138.602, 597.902 1139.301 C 598.342 1139.742, 599.466 1138.937, 600.400 1137.512 C 604.637 1131.046, 680.034 998.417, 680.253 997.045 C 680.474 995.664, 671.821 995.473, 598.813 995.244 C 553.885 995.103, 516.892 995.365, 516.608 995.826 M 236.328 998.519 C 233.845 1000.008, 227.727 1006.379, 221.213 1014.260 C 215.195 1021.542, 204.305 1034.700, 197.015 1043.500 C 182.028 1061.589, 179.552 1065.864, 181.046 1071.073 C 181.587 1072.958, 186.137 1079.450, 191.157 1085.500 C 230.973 1133.483, 233.255 1136.093, 237.317 1138.264 C 241.471 1140.484, 241.817 1140.500, 286.832 1140.500 L 332.164 1140.500 335.082 1137.234 L 338 1133.968 338 1067.907 L 338 1001.846 335.077 998.923 L 332.154 996 286.327 996.009 L 240.500 996.019 236.328 998.519 M 349 1215.994 C 349 1374.246, 349.306 1436, 350.091 1436 C 351.192 1436, 375.232 1427.004, 408.607 1414.103 L 426.713 1407.104 456.607 1418.571 C 473.048 1424.878, 489.913 1431.379, 494.085 1433.019 C 498.257 1434.658, 502.420 1436, 503.337 1436 C 504.889 1436, 504.987 1420.809, 504.752 1216.250 L 504.500 996.500 426.750 996.244 L 349 995.988 349 1215.994" stroke="none" fill="#0c6beb" fill-rule="evenodd"/></svg>